<mxfile host="65bd71144e">
    <diagram id="up-TA_BCbGejoNkFNgTC" name="Page-1">
        <mxGraphModel dx="1130" dy="690" grid="1" gridSize="10" guides="1" tooltips="1" connect="1" arrows="1" fold="1" page="1" pageScale="1" pageWidth="827" pageHeight="1169" math="0" shadow="0">
            <root>
                <mxCell id="0"/>
                <mxCell id="1" parent="0"/>
                <mxCell id="5" value="" style="edgeStyle=none;html=1;" edge="1" parent="1" source="2" target="4">
                    <mxGeometry relative="1" as="geometry"/>
                </mxCell>
                <mxCell id="2" value="GAME OBJECTIVE:&lt;br&gt;" style="rounded=1;whiteSpace=wrap;html=1;sketch=1;curveFitting=1;jiggle=2;" vertex="1" parent="1">
                    <mxGeometry x="224" y="20" width="380" height="60" as="geometry"/>
                </mxCell>
                <mxCell id="7" value="" style="edgeStyle=none;html=1;entryX=0.5;entryY=0;entryDx=0;entryDy=0;" edge="1" parent="1" source="4" target="6">
                    <mxGeometry relative="1" as="geometry"/>
                </mxCell>
                <mxCell id="9" style="edgeStyle=none;html=1;" edge="1" parent="1" source="4" target="8">
                    <mxGeometry relative="1" as="geometry"/>
                </mxCell>
                <mxCell id="10" value="" style="edgeStyle=none;html=1;" edge="1" parent="1" source="4" target="8">
                    <mxGeometry relative="1" as="geometry"/>
                </mxCell>
                <mxCell id="12" style="edgeStyle=none;html=1;entryX=0.55;entryY=0;entryDx=0;entryDy=0;entryPerimeter=0;" edge="1" parent="1" source="4" target="11">
                    <mxGeometry relative="1" as="geometry"/>
                </mxCell>
                <mxCell id="4" value="You want to buy a new LEGO set, but only have 180 minutes to build it. If each individual piece takes X time to build and you have Y total amount of pieces, will you have time to complete it? If yes, return true. If no, return false.&amp;nbsp;" style="whiteSpace=wrap;html=1;rounded=1;sketch=1;curveFitting=1;jiggle=2;" vertex="1" parent="1">
                    <mxGeometry x="69" y="100" width="690" height="60" as="geometry"/>
                </mxCell>
                <mxCell id="6" value="Dreamer:&lt;br&gt;&lt;br&gt;Which set should I buy?&lt;br&gt;Can I buy more than 1 set?" style="whiteSpace=wrap;html=1;rounded=1;sketch=1;curveFitting=1;jiggle=2;" vertex="1" parent="1">
                    <mxGeometry x="40" y="240" width="200" height="120" as="geometry"/>
                </mxCell>
                <mxCell id="8" value="Realist:&lt;br&gt;Check if the chosen set is doable within the time frame" style="whiteSpace=wrap;html=1;rounded=1;sketch=1;curveFitting=1;jiggle=2;" vertex="1" parent="1">
                    <mxGeometry x="314" y="240" width="200" height="120" as="geometry"/>
                </mxCell>
                <mxCell id="11" value="Critic:&lt;br&gt;Is it too simple?" style="whiteSpace=wrap;html=1;rounded=1;sketch=1;curveFitting=1;jiggle=2;" vertex="1" parent="1">
                    <mxGeometry x="580" y="240" width="200" height="120" as="geometry"/>
                </mxCell>
                <mxCell id="13" value="MVP 1:&lt;br&gt;Test whether they will have enough time to build their chosen set." style="whiteSpace=wrap;html=1;rounded=1;sketch=1;curveFitting=1;jiggle=2;" vertex="1" parent="1">
                    <mxGeometry x="44" y="410" width="200" height="120" as="geometry"/>
                </mxCell>
                <mxCell id="14" value="MVP 2:&lt;br&gt;Test whether they can get 2 sets" style="whiteSpace=wrap;html=1;rounded=1;sketch=1;curveFitting=1;jiggle=2;" vertex="1" parent="1">
                    <mxGeometry x="318" y="410" width="200" height="120" as="geometry"/>
                </mxCell>
                <mxCell id="15" value="MVP 3:&lt;br&gt;Test for the max amount of sets they can do within the time frame.&amp;nbsp;" style="whiteSpace=wrap;html=1;rounded=1;sketch=1;curveFitting=1;jiggle=2;" vertex="1" parent="1">
                    <mxGeometry x="584" y="410" width="200" height="120" as="geometry"/>
                </mxCell>
                <mxCell id="16" value="SOLUTION PLAN:&lt;br&gt;" style="rounded=1;whiteSpace=wrap;html=1;sketch=1;" vertex="1" parent="1">
                    <mxGeometry x="60" y="570" width="720" height="120" as="geometry"/>
                </mxCell>
                <mxCell id="17" value="SOLUTION:&lt;br&gt;&lt;br&gt;" style="rounded=1;whiteSpace=wrap;html=1;sketch=1;" vertex="1" parent="1">
                    <mxGeometry x="54" y="710" width="720" height="230" as="geometry"/>
                </mxCell>
            </root>
        </mxGraphModel>
    </diagram>
</mxfile>